# xmcd CD database file
#
# Track frame offsets:
#	150
#	28073
#	52998
#	70875
#	102203
#	120278
#	136698
#	170348
#
# Disc length: 2537 seconds
#
# Revision: 0
# Processed by: cddbd v1.5.1PL0 Copyright (c) Steve Scherf et al.
# Submitted via: CDex 1.51
#
DISCID=5e09e708
DTITLE=michael hornstein - innocent green
DYEAR=1900
DGENRE=Jazz
TTITLE0=lucy, the cat
TTITLE1=innocent green
TTITLE2=things in between
TTITLE3=greenhorn
TTITLE4=you and I
TTITLE5=and me
TTITLE6=chasin' the horn
TTITLE7=two cowboys in new york
EXTD=
EXTT0=
EXTT1=
EXTT2=
EXTT3=
EXTT4=
EXTT5=
EXTT6=
EXTT7=
PLAYORDER=
